# xmcd
#
# Track frame offsets:
# 150
# 16205
# 28620
# 46147
# 62683
# 77568
# 89268
# 107536
# 123457
# 139862
# 147584
# 161981
# 172667
# 189034
# 202224
# 219192
# 238389
# 253454
# 269106
# 286776
# 298284
# 315294
# 322030
# 339138
#
# Disc length: 4656 seconds
#
#
# Revision: 0
# Processed by: cddbd v1.5.2PL0 Copyright (c) Steve Scherf et al.
# Submitted via: FreeRIP 2.95 
#
DISCID=66122e18
DTITLE=Forró Rasta Chinela - O Melhor Do Forró Rasta Chinela
DYEAR=2007
DGENRE=Forró
TTITLE0=Mel Da Sua Boca
TTITLE1=Me Diz
TTITLE2=Qualquer Jeito
TTITLE3=Cheio De Manias
TTITLE4=Fica Comigo
TTITLE5=Berimbau Metalizado
TTITLE6=Me Apaixonei
TTITLE7=Frevo Mulher
TTITLE8=Que Saudade De Você
TTITLE9=Minha Estrela
TTITLE10=Amor Amor
TTITLE11=Só Pensando Em Você
TTITLE12=Magia
TTITLE13=Levada Brasileira
TTITLE14=Eu Duvido
TTITLE15=Eu Só Quero Pescar
TTITLE16=Medo De Sofrer
TTITLE17=Gostaria De Saber
TTITLE18=Quem Não Te Quer Sou Eu
TTITLE19=Tá Bombando
TTITLE20=Não Acredito
TTITLE21=Ai Ai Ui Ui
TTITLE22=Tô Ficando Com Ela
TTITLE23=Pisadinha
EXTD=
EXTT0=
EXTT1=
EXTT2=
EXTT3=
EXTT4=
EXTT5=
EXTT6=
EXTT7=
EXTT8=
EXTT9=
EXTT10=
EXTT11=
EXTT12=
EXTT13=
EXTT14=
EXTT15=
EXTT16=
EXTT17=
EXTT18=
EXTT19=
EXTT20=
EXTT21=
EXTT22=
EXTT23=
PLAYORDER=
